<svg xmlns="http://www.w3.org/2000/svg" fill="none" viewBox="0 0 95 113">
  <path fill="#FF3E00" d="M88.2 15.4a34.2 34.2 0 00-45.8-9.8l-26 16.6a29.9 29.9 0 00-13.6 20C1.6 49 2.7 56.2 6 62.4a30 30 0 00-4.1 23.8 34.2 34.2 0 0051 21.3l26-16.5a30 30 0 0013.5-20c1.3-6.9.2-14-3.1-20.2A30.1 30.1 0 0093.4 27c-1-4.2-2.7-8-5.2-11.5"/>
  <path fill="#fff" d="M39.9 99.2A20.7 20.7 0 0114.5 84a19.1 19.1 0 01.5-10l.5-1.5 1.3 1c3.1 2.2 6.5 4 10.2 5l1 .3v1c-.2 1.4.2 2.8 1 3.9a6.2 6.2 0 006.7 2.5l1.6-.7 26-16.6a5.4 5.4 0 002.4-6c-.1-.7-.5-1.4-1-2a6.2 6.2 0 00-6.6-2.5c-.6.1-1.1.4-1.6.7l-10 6.3a20.7 20.7 0 01-30.6-12.8A19.2 19.2 0 0118.5 38 18 18 0 0124 33L50 16.3a19 19 0 015.3-2.3 20.7 20.7 0 0125.3 15.2 19.1 19.1 0 01-.4 10l-.5 1.5-1.4-1c-3-2.3-6.5-4-10.2-5.1l-1-.3.1-1c.1-1.4-.3-2.8-1-3.9a6.2 6.2 0 00-8.3-1.7L31.8 44.3a5.5 5.5 0 00-2.4 6c.2.7.5 1.4 1 2a6.2 6.2 0 006.6 2.5 6 6 0 001.6-.7l10-6.4a20.7 20.7 0 0130.6 12.8c.6 2.6.7 5.1.2 7.7a18 18 0 01-8.1 12L45.2 96.8c-1.6 1-3.4 1.9-5.3 2.4"/>
</svg>
